<?xml version="1.0" encoding="UTF-8"?>
<svg width="245px" height="49px" viewBox="0 0 245 49" version="1.1" xmlns="http://www.w3.org/2000/svg" xmlns:xlink="http://www.w3.org/1999/xlink">
    <!-- Generator: Sketch 55.2 (78181) - https://sketchapp.com -->
    <title>Group 81</title>
    <desc>Created with Sketch.</desc>
    <g id="Designs" stroke="none" stroke-width="1" fill="none" fill-rule="evenodd">
        <g id="TechnoServe---Terminal-Copy-2" transform="translate(-36.000000, -28.000000)">
            <g id="Group-81" transform="translate(36.000000, 28.000000)">
                <polygon id="Fill-1" fill="#00B0AF" points="56.4255542 24.0017302 59.4828026 24.0017302 59.4828026 6.25619536 54.2572471 6.25619536 54.2572471 9.99033053 51.1999986 9.99033053 51.1999986 3.48238627 70.9999981 3.48238627 70.9999981 9.99033053 67.9427496 9.99033053 67.9427496 6.25619536 62.7175167 6.25619536 62.7175167 24.0017302 65.7747652 24.0017302 65.7747652 26.8823857 56.4255542 26.8823857"></polygon>
                <g id="Group-80" transform="translate(0.000000, 0.782386)">
                    <path d="M74.4023355,16.7213601 L82.7655853,16.7213601 C82.6266703,14.3357325 81.1691653,12.7111082 78.6359354,12.7111082 C76.6234004,12.7111082 74.7841155,14.0247411 74.4023355,16.7213601 L74.4023355,16.7213601 Z M74.4023355,18.9340752 C74.8187655,21.7690869 76.9009154,23.1517593 79.8159254,23.1517593 C81.7245103,23.1517593 83.3555803,22.5642961 85.1255652,21.5616547 L84.8827002,24.2927934 C83.3209303,25.2609151 81.4123453,25.7106131 79.3648454,25.7106131 C74.5409355,25.7106131 71.2787956,22.5988158 71.2787956,18.0353068 C71.2787956,13.8518286 74.1594705,10.2561274 78.7055504,10.2561274 C83.3209303,10.2561274 85.7502102,13.5408371 85.7502102,17.3436568 C85.7502102,17.896914 85.6809102,18.484691 85.6112952,18.9340752 L74.4023355,18.9340752 Z" id="Fill-2" fill="#00B0AF"></path>
                    <path d="M88.3535276,17.9315593 C88.3535276,13.9209936 91.5810175,10.2562529 95.8492674,10.2562529 C99.5624873,10.2562529 102.269597,12.6764002 102.269597,14.9581547 C102.269597,16.2721014 101.367122,17.1708698 100.152797,17.1708698 C99.1810223,17.1708698 98.2785474,16.4101804 98.2785474,15.3039797 C98.2785474,14.8200758 98.5214124,14.335858 98.9031924,14.0593863 C98.5563774,13.3677364 97.3067724,12.7109199 95.8492674,12.7109199 C93.8367325,12.7109199 91.3724876,14.4052113 91.3724876,18.0005987 C91.3724876,21.0775625 93.6285175,23.1518848 96.7170924,23.1518848 C98.4521124,23.1518848 100.013882,22.6331473 101.852852,21.5614664 L101.575337,24.292919 C100.048532,25.2607268 98.2785474,25.7104248 96.4392624,25.7104248 C91.7892325,25.7104248 88.3535276,22.5295881 88.3535276,17.9315593" id="Fill-4" fill="#00B0AF"></path>
                    <path d="M104.803363,2.68481953 L104.803363,0.126593286 L110.113003,0.126593286 L110.113003,13.0219114 C111.535858,11.5011601 113.305527,10.2562529 115.422327,10.2562529 C117.123012,10.2562529 118.406952,10.8440298 119.170512,11.8466713 C119.829807,12.7109199 120.176937,13.8864738 120.176937,15.26946 L120.176937,22.9444526 L122.501952,22.9444526 L122.501952,25.4336393 L114.971247,25.4336393 L114.971247,22.9444526 L117.192312,22.9444526 L117.192312,15.9262764 C117.192312,14.9581547 116.984097,14.3013383 116.602632,13.8174344 C116.151237,13.2641771 115.457292,12.9873916 114.555132,12.9873916 C112.923747,12.9873916 111.362293,13.9555133 110.113003,15.2346264 L110.113003,22.9444526 L112.334067,22.9444526 L112.334067,25.4336393 L104.803363,25.4336393 L104.803363,22.9444526 L107.128378,22.9444526 L107.128378,2.68481953 L104.803363,2.68481953 Z" id="Fill-6" fill="#00B0AF"></path>
                    <path d="M129.68622,13.1259413 C131.109075,11.6045624 132.98301,10.256096 135.13446,10.256096 C137.00871,10.256096 138.29265,10.9822657 139.05621,12.1578196 C139.54194,12.9875485 139.819455,14.0247097 139.819455,15.2693031 L139.819455,22.9442956 L142.14447,22.9442956 L142.14447,25.4337962 L134.61408,25.4337962 L134.61408,22.9442956 L136.835145,22.9442956 L136.835145,15.9264333 C136.835145,15.1999498 136.73088,14.6124867 136.488015,14.1631025 C136.071585,13.3678933 135.34299,12.9875485 134.26695,12.9875485 C132.636195,12.9875485 131.074425,13.9556702 129.790485,15.2347833 L129.790485,22.9442956 L132.011235,22.9442956 L132.011235,25.4337962 L124.515495,25.4337962 L124.515495,22.9442956 L126.84051,22.9442956 L126.84051,13.0914216 L124.515495,13.0914216 L124.515495,10.5328815 L129.68622,10.5328815 L129.68622,13.1259413 Z" id="Fill-8" fill="#00B0AF"></path>
                    <path d="M156.512438,18.0005046 C156.512438,14.9583744 154.569203,12.7801791 151.793108,12.7801791 C148.982049,12.7801791 147.038499,14.9583744 147.038499,18.0005046 C147.038499,21.0429486 148.982049,23.1863104 151.793108,23.1863104 C154.569203,23.1863104 156.512438,21.0429486 156.512438,18.0005046 M143.984574,18.0005046 C143.984574,13.8173402 147.038499,10.2561587 151.793108,10.2561587 C156.547088,10.2561587 159.601013,13.7828205 159.601013,18.0005046 C159.601013,22.149463 156.512438,25.7103307 151.793108,25.7103307 C147.003849,25.7103307 143.984574,22.1839828 143.984574,18.0005046" id="Fill-10" fill="#00B0AF"></path>
                    <path d="M162.655537,20.8702244 C162.655537,19.4181988 163.523047,18.4845968 164.737687,18.4845968 C165.986977,18.4845968 166.819837,19.4181988 166.819837,20.3860066 C166.819837,21.0083033 166.646272,21.4580013 166.368757,21.872552 C167.166967,22.564202 168.693772,23.0829395 170.533056,23.0829395 C173.309151,23.0829395 175.079136,21.734473 175.079136,19.4872382 C175.079136,17.3438764 172.996986,16.3409212 170.567706,15.4421528 C166.472707,13.9207739 163.523047,12.5381016 163.523047,8.49332997 C163.523047,4.93214849 166.368757,2.27004922 170.775921,2.27004922 C174.766971,2.27004922 177.890196,4.41372482 177.890196,6.93743133 C177.890196,8.35493721 176.988036,9.18466614 175.877346,9.18466614 C174.558756,9.18466614 173.760546,8.21654445 173.760546,7.1793833 C173.760546,6.62612607 173.934111,6.2806149 174.142326,5.96962346 C173.517366,5.41636624 172.164126,5.00150178 170.741271,5.00150178 C168.208042,5.00150178 166.680922,6.34965437 166.680922,8.25106419 C166.680922,10.4292595 168.728422,11.3625477 171.331266,12.3651891 C175.252701,13.8172147 178.202361,15.2347206 178.202361,19.2452863 C178.202361,23.3939309 174.940536,25.8485979 170.463756,25.8485979 C165.986977,25.8485979 162.655537,23.3245776 162.655537,20.8702244" id="Fill-12" fill="#1F2171"></path>
                    <path d="M184.276128,16.7213601 L192.639693,16.7213601 C192.500778,14.3357325 191.043273,12.7111082 188.509728,12.7111082 C186.497193,12.7111082 184.657908,14.0247411 184.276128,16.7213601 L184.276128,16.7213601 Z M184.276128,18.9340752 C184.692558,21.7690869 186.774708,23.1517593 189.690033,23.1517593 C191.598618,23.1517593 193.229373,22.5642961 194.999358,21.5616547 L194.756493,24.2927934 C193.194723,25.2609151 191.286138,25.7106131 189.238638,25.7106131 C184.414728,25.7106131 181.152903,22.5988158 181.152903,18.0353068 C181.152903,13.8518286 184.033263,10.2561274 188.579343,10.2561274 C193.194723,10.2561274 195.624003,13.5408371 195.624003,17.3436568 C195.624003,17.896914 195.554703,18.484691 195.485088,18.9340752 L184.276128,18.9340752 Z" id="Fill-14" fill="#1F2171"></path>
                    <path d="M210.442957,12.4345737 C210.442957,13.5062546 209.575447,14.4398566 208.534057,14.4398566 C207.527947,14.4398566 206.833687,13.8172461 206.556172,13.1604297 C205.445797,13.5062546 204.161542,14.750848 203.432947,16.1680401 L203.432947,22.9442643 L206.174392,22.9442643 L206.174392,25.4337649 L198.157957,25.4337649 L198.157957,22.9442643 L200.482972,22.9442643 L200.482972,13.0913902 L198.157957,13.0913902 L198.157957,10.5328501 L203.328682,10.5328501 L203.328682,13.9208053 C204.508672,11.8810027 206.243692,10.2563784 207.979027,10.2563784 C209.609782,10.2563784 210.442957,11.2590198 210.442957,12.4345737" id="Fill-16" fill="#1F2171"></path>
                    <polygon id="Fill-18" fill="#1F2171" points="212.942041 13.0913274 211.068106 13.0913274 211.068106 10.5331012 218.320981 10.5331012 218.320981 12.9874544 216.030616 12.9874544 220.090966 21.9418739 224.151316 12.9874544 221.756686 12.9874544 221.756686 10.5331012 229.00956 10.5331012 229.00956 13.0913274 227.135625 13.0913274 220.993441 25.8485666 219.084541 25.8485666"></polygon>
                    <path d="M233.105411,16.7213601 L241.468976,16.7213601 C241.330061,14.3357325 239.872556,12.7111082 237.339011,12.7111082 C235.326476,12.7111082 233.487191,14.0247411 233.105411,16.7213601 L233.105411,16.7213601 Z M233.105411,18.9340752 C233.521841,21.7690869 235.603991,23.1517593 238.519316,23.1517593 C240.427901,23.1517593 242.058656,22.5642961 243.828641,21.5616547 L243.585776,24.2927934 C242.024006,25.2609151 240.115421,25.7106131 238.067921,25.7106131 C233.244011,25.7106131 229.982186,22.5988158 229.982186,18.0353068 C229.982186,13.8518286 232.862546,10.2561274 237.408626,10.2561274 C242.024006,10.2561274 244.453285,13.5408371 244.453285,17.3436568 C244.453285,17.896914 244.383985,18.484691 244.314371,18.9340752 L233.105411,18.9340752 Z" id="Fill-20" fill="#1F2171"></path>
                    <path d="M11.1334227,36.1371738 C7.14741281,33.1804016 4.55307288,28.4289168 4.55307288,23.0595288 C4.55307288,14.0878494 11.7621627,6.81548252 20.6574475,6.81548252 C27.5102723,6.81548252 34.7499171,9.09535417 39.041792,13.5841751 C35.6193171,6.84623646 28.6792372,2.22498527 20.6574475,2.22498527 C9.24720276,2.22498527 6.29999959e-05,11.5522179 6.29999959e-05,23.0595288 C6.29999959e-05,23.4461498 0.035972999,23.8211597 0.0551879985,24.204015 C0.591632984,30.1213253 5.27788786,34.1064719 11.1334227,36.1371738" id="Fill-22" fill="#1F2171"></path>
                    <path d="M31.0273741,10.2234362 C27.8261055,8.93200233 24.2652522,8.40583813 20.6568805,8.40583813 C15.6386156,8.40583813 11.2172757,10.9684578 8.60781577,14.8669913 C8.12271578,15.5878261 7.6577758,16.3387873 7.35317081,17.1669471 C10.9498407,15.6490202 20.8427304,21.0485345 26.3098703,16.42948 C30.3447052,13.015792 38.38697,17.0991629 36.476495,26.1499238 C34.8980301,33.6146598 28.5060502,39.3028847 20.6568805,39.3028847 C13.8024806,39.3028847 6.56567083,37.0245821 2.27474094,32.5370164 C5.69753085,39.2711893 12.6363507,43.8936957 20.6568805,43.8936957 C30.8427202,43.8936957 39.25007,36.450613 41.0080849,26.6793311 C41.8774849,21.8280529 40.0066999,16.7828366 36.71747,13.7673808 C35.0288106,12.2206324 33.1037286,11.0610649 31.0273741,10.2234362 Z" id="Fill-24" fill="#00B0AF"></path>
                    <path d="M12.4888687,14.7072904 C13.5734137,13.0923944 21.9949384,10.0486951 27.0859683,11.2427642 C27.3149733,11.2936023 27.4573533,11.525826 27.4047483,11.7567944 C27.3508833,11.9861938 27.1231383,12.130549 26.8925583,12.0781418 C22.0447084,10.941501 13.9715737,13.7583115 12.4888687,14.7072904" id="Fill-26" fill="#FFFFFF"></path>
                    <path d="M56.536544,43.3420704 C57.6812539,43.3420704 58.4448139,42.8738572 58.4448139,41.9524941 C58.4448139,41.0603158 57.7401589,40.5635454 56.492444,40.5635454 L55.229924,40.5635454 L55.229924,43.3420704 L56.536544,43.3420704 Z M56.360144,39.2470882 C57.5199739,39.2470882 58.1657239,38.7205054 58.1657239,37.8870106 C58.1657239,37.0682653 57.490679,36.6148015 56.316359,36.6148015 L55.229924,36.6148015 L55.229924,39.2470882 L56.360144,39.2470882 Z M52.4850141,43.3125717 L53.5856241,43.3125717 L53.5856241,36.6439863 L52.4850141,36.6439863 L52.4850141,35.1668554 L56.345654,35.1668554 C58.7090989,35.1668554 59.8689289,36.2488923 59.8689289,37.6968383 C59.8689289,38.8083738 59.1787639,39.5248152 58.2246289,39.8464764 C59.4282439,40.1973224 60.1477039,40.8996421 60.1477039,42.0987322 C60.1477039,43.6929164 58.8558889,44.7897026 56.507249,44.7897026 L52.4850141,44.7897026 L52.4850141,43.3125717 Z" id="Fill-28" fill="#1F2171"></path>
                    <path d="M62.1142488,44.0585746 C61.9088688,43.722164 61.7913738,43.2834496 61.7913738,42.7713022 L61.7913738,39.7297997 L60.8369239,39.7297997 L60.8369239,38.3841576 L63.3912588,38.3841576 L63.3912588,42.3768358 C63.3912588,42.6545628 63.4353588,42.8594845 63.5235588,43.0345937 C63.6703488,43.3126344 63.9346338,43.4588726 64.3164138,43.4588726 C64.8739638,43.4588726 65.4611237,43.1368976 65.9748887,42.7132463 L65.9748887,39.7297997 L64.9766538,39.7297997 L64.9766538,38.3841576 L67.5750887,38.3841576 L67.5750887,43.4736219 L68.5292237,43.4736219 L68.5292237,44.7897653 L66.0337937,44.7897653 L66.0337937,43.7660982 C65.4170237,44.3658002 64.7271738,44.9068186 63.7878438,44.9068186 C63.0097938,44.9068186 62.4371238,44.5851574 62.1142488,44.0585746" id="Fill-30" fill="#1F2171"></path>
                    <path d="M74.077791,40.6657239 C73.564026,40.6657239 73.211541,40.3584982 73.211541,39.8758495 C73.211541,39.7735456 73.211541,39.6856772 73.240836,39.5981226 C72.976551,39.4955048 72.653676,39.4371351 72.3308011,39.4371351 C71.6116561,39.4371351 71.2591711,39.7587962 71.2591711,40.0955206 C71.2591711,40.4608022 71.6261461,40.6509745 72.6098911,40.914266 C74.151186,41.3237956 75.046731,41.7041403 75.046731,42.8592962 C75.046731,44.2046244 73.783896,44.9213797 72.3308011,44.9213797 C71.3473711,44.9213797 70.2902311,44.5702198 69.8646661,44.1462547 C69.6003811,43.8829632 69.4976911,43.6199856 69.4976911,43.2835751 C69.4976911,42.8156758 69.8498611,42.4205817 70.3491361,42.4205817 C70.7895061,42.4205817 71.2153861,42.713058 71.2153861,43.2688258 C71.2153861,43.3566942 71.2005811,43.4442488 71.1857761,43.5321172 C71.4793561,43.6491705 71.8904311,43.7367251 72.3456061,43.7367251 C72.991356,43.7367251 73.519926,43.5176817 73.519926,43.0494685 C73.519926,42.7274935 73.240836,42.537635 72.2574061,42.2743436 C70.4814361,41.8064442 69.7326811,41.3821653 69.7326811,40.2853791 C69.7326811,39.2908969 70.5545161,38.2527943 72.3600961,38.2527943 C73.138146,38.2527943 74.077791,38.5452706 74.517846,38.9839851 C74.753151,39.2180917 74.870331,39.4955048 74.870331,39.8027305 C74.870331,40.314564 74.547456,40.6657239 74.077791,40.6657239" id="Fill-32" fill="#1F2171"></path>
                    <path d="M76.6610114,36.3513845 C76.6610114,35.7664319 77.1747764,35.2985326 77.7471314,35.2985326 C78.3198014,35.2985326 78.8042714,35.7664319 78.8042714,36.3513845 C78.8042714,36.9363371 78.2901914,37.4042364 77.7178364,37.4042364 C77.1451664,37.4042364 76.6610114,36.9363371 76.6610114,36.3513845 L76.6610114,36.3513845 Z M76.1031465,43.4734337 L77.0865764,43.4734337 L77.0865764,39.7299252 L76.1031465,39.7299252 L76.1031465,38.3842831 L78.6867764,38.3842831 L78.6867764,43.4734337 L79.6409114,43.4734337 L79.6409114,44.7898909 L76.1031465,44.7898909 L76.1031465,43.4734337 Z" id="Fill-34" fill="#1F2171"></path>
                    <path d="M83.0609923,39.408013 C83.6777623,38.808311 84.3676122,38.2672926 85.3069422,38.2672926 C86.0701872,38.2672926 86.6280522,38.5742044 86.9657322,39.0863518 C87.1859172,39.4371978 87.3034122,39.8759123 87.3034122,40.4024952 L87.3034122,43.4734964 L88.2578621,43.4734964 L88.2578621,44.7896398 L84.8224722,44.7896398 L84.8224722,43.4734964 L85.7035272,43.4734964 L85.7035272,40.7972754 C85.7035272,40.533984 85.6594272,40.3001912 85.5712272,40.1392037 C85.4244372,39.861163 85.1601522,39.7152386 84.7783722,39.7152386 C84.2208222,39.7152386 83.6333473,40.0368998 83.1198973,40.4605511 L83.1198973,43.4734964 L84.0003222,43.4734964 L84.0003222,44.7896398 L80.5655623,44.7896398 L80.5655623,43.4734964 L81.5196973,43.4734964 L81.5196973,39.7296741 L80.5655623,39.7296741 L80.5655623,38.3840321 L83.0609923,38.3840321 L83.0609923,39.408013 Z" id="Fill-36" fill="#1F2171"></path>
                    <path d="M90.5473136,41.0166327 L93.6740035,41.0166327 C93.6447085,40.1392037 93.0723535,39.5542511 92.1327085,39.5542511 C91.4280536,39.5542511 90.7233986,39.9637807 90.5473136,41.0166327 L90.5473136,41.0166327 Z M90.5621186,42.1281682 C90.7823036,43.1223366 91.6041385,43.561051 92.6757685,43.561051 C93.4541335,43.561051 94.2614785,43.3125089 95.0099185,42.8885438 L94.8779335,44.3217405 C94.2025735,44.7168345 93.3804235,44.9066931 92.4410935,44.9066931 C90.3419336,44.9066931 88.8885236,43.5905497 88.8885236,41.6015853 C88.8885236,39.7880439 90.1658486,38.2672926 92.1475135,38.2672926 C94.2025735,38.2672926 95.2742034,39.6421195 95.2742034,41.3382938 C95.2742034,41.5868359 95.2449085,41.9088109 95.2008085,42.1281682 L90.5621186,42.1281682 Z" id="Fill-38" fill="#1F2171"></path>
                    <path d="M100.896166,40.6657239 C100.382401,40.6657239 100.029916,40.3584982 100.029916,39.8758495 C100.029916,39.7735456 100.029916,39.6856772 100.059526,39.5981226 C99.7952408,39.4955048 99.4720508,39.4371351 99.1494908,39.4371351 C98.4300309,39.4371351 98.0775459,39.7587962 98.0775459,40.0955206 C98.0775459,40.4608022 98.4448359,40.6509745 99.4282658,40.914266 C100.969561,41.3237956 101.865106,41.7041403 101.865106,42.8592962 C101.865106,44.2046244 100.602586,44.9213797 99.1494908,44.9213797 C98.1657459,44.9213797 97.1089209,44.5702198 96.6830409,44.1462547 C96.4190709,43.8829632 96.3160659,43.6199856 96.3160659,43.2835751 C96.3160659,42.8156758 96.6685509,42.4205817 97.1675109,42.4205817 C97.6078809,42.4205817 98.0337609,42.713058 98.0337609,43.2688258 C98.0337609,43.3566942 98.0189559,43.4442488 98.0041509,43.5321172 C98.2977309,43.6491705 98.7091209,43.7367251 99.1639808,43.7367251 C99.8097308,43.7367251 100.338301,43.5176817 100.338301,43.0494685 C100.338301,42.7274935 100.059526,42.537635 99.0757808,42.2743436 C97.2998109,41.8064442 96.5510559,41.3821653 96.5510559,40.2853791 C96.5510559,39.2908969 97.3728909,38.2527943 99.1787858,38.2527943 C99.9568358,38.2527943 100.896166,38.5452706 101.336536,38.9839851 C101.571526,39.2180917 101.689021,39.4955048 101.689021,39.8027305 C101.689021,40.314564 101.365831,40.6657239 100.896166,40.6657239" id="Fill-40" fill="#1F2171"></path>
                    <path d="M107.61899,40.6657239 C107.105225,40.6657239 106.75274,40.3584982 106.75274,39.8758495 C106.75274,39.7735456 106.75274,39.6856772 106.78235,39.5981226 C106.518065,39.4955048 106.194875,39.4371351 105.872315,39.4371351 C105.152855,39.4371351 104.800685,39.7587962 104.800685,40.0955206 C104.800685,40.4608022 105.16766,40.6509745 106.15109,40.914266 C107.692385,41.3237956 108.58793,41.7041403 108.58793,42.8592962 C108.58793,44.2046244 107.32541,44.9213797 105.872315,44.9213797 C104.88857,44.9213797 103.831745,44.5702198 103.405865,44.1462547 C103.141895,43.8829632 103.03889,43.6199856 103.03889,43.2835751 C103.03889,42.8156758 103.391375,42.4205817 103.89065,42.4205817 C104.330705,42.4205817 104.756585,42.713058 104.756585,43.2688258 C104.756585,43.3566942 104.74178,43.4442488 104.726975,43.5321172 C105.020555,43.6491705 105.431945,43.7367251 105.886805,43.7367251 C106.53287,43.7367251 107.061125,43.5176817 107.061125,43.0494685 C107.061125,42.7274935 106.78235,42.537635 105.79892,42.2743436 C104.022635,41.8064442 103.27388,41.3821653 103.27388,40.2853791 C103.27388,39.2908969 104.095715,38.2527943 105.90161,38.2527943 C106.67966,38.2527943 107.61899,38.5452706 108.05936,38.9839851 C108.29435,39.2180917 108.411845,39.4955048 108.411845,39.8027305 C108.411845,40.314564 108.088655,40.6657239 107.61899,40.6657239" id="Fill-42" fill="#1F2171"></path>
                    <path d="M112.991063,42.7275877 C112.991063,42.0406449 113.402138,41.5868673 114.003788,41.5868673 C114.649853,41.5868673 115.060928,42.069516 115.060928,42.5377291 C115.060928,42.7715219 115.016828,42.9469449 114.928628,43.1223679 C115.281113,43.3712239 115.824173,43.5318975 116.455433,43.5318975 C117.512573,43.5318975 118.187618,43.0639982 118.187618,42.2305035 C118.187618,41.4406292 117.380273,41.0605983 116.411333,40.7238739 C114.620558,40.0805516 113.358038,39.5100345 113.358038,37.7259918 C113.358038,36.1904911 114.605753,34.991401 116.558123,34.991401 C118.363703,34.991401 119.758208,35.9124504 119.758208,37.0682339 C119.758208,37.7554904 119.332643,38.1502707 118.774778,38.1502707 C118.099418,38.1502707 117.717953,37.6528727 117.717953,37.1705378 C117.717953,36.9364313 117.762053,36.8341273 117.820643,36.717074 C117.556358,36.5564003 117.145283,36.4245977 116.543318,36.4245977 C115.589498,36.4245977 115.031633,36.9072464 115.031633,37.6089385 C115.031633,38.3988128 115.838978,38.7496588 116.807603,39.1008187 C118.540103,39.7149562 119.846408,40.3146581 119.846408,42.0987009 C119.846408,43.9266778 118.422608,44.965408 116.440943,44.965408 C114.532358,44.965408 112.991063,43.8978067 112.991063,42.7275877" id="Fill-44" fill="#1F2171"></path>
                    <path d="M126.158157,41.5869615 C126.158157,40.4170562 125.424207,39.597997 124.382187,39.597997 C123.339852,39.597997 122.605902,40.4170562 122.605902,41.5869615 C122.605902,42.7571805 123.339852,43.5759259 124.382187,43.5759259 C125.424207,43.5759259 126.158157,42.7571805 126.158157,41.5869615 M120.961602,41.5869615 C120.961602,39.8321036 122.282712,38.2674181 124.382187,38.2674181 C126.510642,38.2674181 127.802457,39.8026049 127.802457,41.5869615 C127.802457,43.3421331 126.481032,44.9068186 124.382187,44.9068186 C122.253417,44.9068186 120.961602,43.371318 120.961602,41.5869615" id="Fill-46" fill="#1F2171"></path>
                    <polygon id="Fill-48" fill="#1F2171" points="128.68263 43.4735278 129.680865 43.4735278 129.680865 35.4301155 128.68263 35.4301155 128.68263 34.0844734 131.281065 34.0844734 131.281065 43.4735278 132.2352 43.4735278 132.2352 44.7896712 128.68263 44.7896712"></polygon>
                    <path d="M133.996554,44.0585746 C133.791174,43.722164 133.673679,43.2834496 133.673679,42.7713022 L133.673679,39.7297997 L132.719544,39.7297997 L132.719544,38.3841576 L135.273879,38.3841576 L135.273879,42.3768358 C135.273879,42.6545628 135.317664,42.8594845 135.405864,43.0345937 C135.552654,43.3126344 135.816939,43.4588726 136.198719,43.4588726 C136.756269,43.4588726 137.343429,43.1368976 137.857509,42.7132463 L137.857509,39.7297997 L136.859274,39.7297997 L136.859274,38.3841576 L139.457394,38.3841576 L139.457394,43.4736219 L140.411844,43.4736219 L140.411844,44.7897653 L137.916099,44.7897653 L137.916099,43.7660982 C137.299644,44.3658002 136.609479,44.9068186 135.670149,44.9068186 C134.892099,44.9068186 134.319744,44.5851574 133.996554,44.0585746" id="Fill-50" fill="#1F2171"></path>
                    <path d="M142.392973,44.0294525 C142.246183,43.766161 142.172788,43.4297505 142.172788,43.0202209 L142.172788,39.7298624 L140.925073,39.7298624 L140.925073,38.3842204 L142.172788,38.3842204 L142.172788,37.0388921 L143.758183,36.3513217 L143.758183,38.3842204 L145.710553,38.3842204 L145.710553,39.7298624 L143.758183,39.7298624 L143.758183,42.7133091 C143.758183,42.917917 143.787478,43.0494058 143.860873,43.1812084 C143.978368,43.3858163 144.213043,43.4881202 144.536233,43.4881202 C144.946993,43.4881202 145.416973,43.3274465 145.798753,43.1517097 L145.666453,44.5265366 C145.226083,44.7458939 144.712318,44.9068814 144.125158,44.9068814 C143.347108,44.9068814 142.715848,44.6435899 142.392973,44.0294525" id="Fill-52" fill="#1F2171"></path>
                    <path d="M147.236697,36.3513845 C147.236697,35.7664319 147.750462,35.2985326 148.323132,35.2985326 C148.895487,35.2985326 149.379957,35.7664319 149.379957,36.3513845 C149.379957,36.9363371 148.866192,37.4042364 148.293522,37.4042364 C147.721167,37.4042364 147.236697,36.9363371 147.236697,36.3513845 L147.236697,36.3513845 Z M146.678832,43.4734337 L147.662577,43.4734337 L147.662577,39.7299252 L146.678832,39.7299252 L146.678832,38.3842831 L149.262462,38.3842831 L149.262462,43.4734337 L150.216596,43.4734337 L150.216596,44.7898909 L146.678832,44.7898909 L146.678832,43.4734337 Z" id="Fill-54" fill="#1F2171"></path>
                    <path d="M156.381839,41.5869615 C156.381839,40.4170562 155.647889,39.597997 154.605554,39.597997 C153.563219,39.597997 152.829269,40.4170562 152.829269,41.5869615 C152.829269,42.7571805 153.563219,43.5759259 154.605554,43.5759259 C155.647889,43.5759259 156.381839,42.7571805 156.381839,41.5869615 M151.185284,41.5869615 C151.185284,39.8321036 152.506394,38.2674181 154.605554,38.2674181 C156.734324,38.2674181 158.026139,39.8026049 158.026139,41.5869615 C158.026139,43.3421331 156.704714,44.9068186 154.605554,44.9068186 C152.477099,44.9068186 151.185284,43.371318 151.185284,41.5869615" id="Fill-56" fill="#1F2171"></path>
                    <path d="M161.475232,39.408013 C162.092002,38.808311 162.781852,38.2672926 163.721182,38.2672926 C164.484742,38.2672926 165.042607,38.5742044 165.379972,39.0863518 C165.600472,39.4371978 165.717652,39.8759123 165.717652,40.4024952 L165.717652,43.4734964 L166.672102,43.4734964 L166.672102,44.7896398 L163.236712,44.7896398 L163.236712,43.4734964 L164.117767,43.4734964 L164.117767,40.7972754 C164.117767,40.533984 164.073667,40.3001912 163.985467,40.1392037 C163.838677,39.861163 163.574707,39.7152386 163.192927,39.7152386 C162.635062,39.7152386 162.047587,40.0368998 161.534137,40.4605511 L161.534137,43.4734964 L162.414562,43.4734964 L162.414562,44.7896398 L158.979802,44.7896398 L158.979802,43.4734964 L159.933937,43.4734964 L159.933937,39.7296741 L158.979802,39.7296741 L158.979802,38.3840321 L161.475232,38.3840321 L161.475232,39.408013 Z" id="Fill-58" fill="#1F2171"></path>
                    <path d="M171.971126,40.6657239 C171.457361,40.6657239 171.104876,40.3584982 171.104876,39.8758495 C171.104876,39.7735456 171.104876,39.6856772 171.134171,39.5981226 C170.869886,39.4955048 170.547011,39.4371351 170.224136,39.4371351 C169.504991,39.4371351 169.152506,39.7587962 169.152506,40.0955206 C169.152506,40.4608022 169.519481,40.6509745 170.502911,40.914266 C172.044521,41.3237956 172.940066,41.7041403 172.940066,42.8592962 C172.940066,44.2046244 171.677231,44.9213797 170.224136,44.9213797 C169.240706,44.9213797 168.183566,44.5702198 167.758001,44.1462547 C167.493716,43.8829632 167.391026,43.6199856 167.391026,43.2835751 C167.391026,42.8156758 167.743196,42.4205817 168.242471,42.4205817 C168.682841,42.4205817 169.108721,42.713058 169.108721,43.2688258 C169.108721,43.3566942 169.093916,43.4442488 169.079111,43.5321172 C169.372691,43.6491705 169.783766,43.7367251 170.238941,43.7367251 C170.884691,43.7367251 171.413261,43.5176817 171.413261,43.0494685 C171.413261,42.7274935 171.134171,42.537635 170.150741,42.2743436 C168.374771,41.8064442 167.626016,41.3821653 167.626016,40.2853791 C167.626016,39.2908969 168.447851,38.2527943 170.253431,38.2527943 C171.031481,38.2527943 171.971126,38.5452706 172.411181,38.9839851 C172.646486,39.2180917 172.763666,39.4955048 172.763666,39.8027305 C172.763666,40.314564 172.440791,40.6657239 171.971126,40.6657239" id="Fill-60" fill="#1F2171"></path>
                    <path d="M178.355703,44.0294525 C178.208913,43.766161 178.135518,43.4297505 178.135518,43.0202209 L178.135518,39.7298624 L176.887803,39.7298624 L176.887803,38.3842204 L178.135518,38.3842204 L178.135518,37.0388921 L179.720913,36.3513217 L179.720913,38.3842204 L181.673598,38.3842204 L181.673598,39.7298624 L179.720913,39.7298624 L179.720913,42.7133091 C179.720913,42.917917 179.750208,43.0494058 179.823918,43.1812084 C179.941413,43.3858163 180.176088,43.4881202 180.498963,43.4881202 C180.910038,43.4881202 181.379703,43.3274465 181.761483,43.1517097 L181.629498,44.5265366 C181.189128,44.7458939 180.675363,44.9068814 180.087888,44.9068814 C179.309838,44.9068814 178.678578,44.6435899 178.355703,44.0294525" id="Fill-62" fill="#1F2171"></path>
                    <path d="M187.721126,41.5869615 C187.721126,40.4170562 186.987176,39.597997 185.944841,39.597997 C184.902506,39.597997 184.168556,40.4170562 184.168556,41.5869615 C184.168556,42.7571805 184.902506,43.5759259 185.944841,43.5759259 C186.987176,43.5759259 187.721126,42.7571805 187.721126,41.5869615 M182.524571,41.5869615 C182.524571,39.8321036 183.845681,38.2674181 185.944841,38.2674181 C188.07361,38.2674181 189.365425,39.8026049 189.365425,41.5869615 C189.365425,43.3421331 188.044,44.9068186 185.944841,44.9068186 C183.816386,44.9068186 182.524571,43.371318 182.524571,41.5869615" id="Fill-64" fill="#1F2171"></path>
                    <path d="M199.464105,38.3108816 C199.464105,37.3019639 198.627465,36.6438922 197.43834,36.6438922 L196.396005,36.6438922 L196.396005,40.124423 C196.57209,40.1391724 196.80708,40.1539217 197.48244,40.1539217 C198.730155,40.1539217 199.464105,39.4519158 199.464105,38.3108816 L199.464105,38.3108816 Z M193.63629,43.3124775 L194.737215,43.3124775 L194.737215,36.6438922 L193.63629,36.6438922 L193.63629,35.1667613 L197.52654,35.1667613 C199.59609,35.1667613 201.181485,36.3514159 201.181485,38.3108816 C201.181485,40.5195171 199.610895,41.6015539 197.33565,41.6015539 C196.880475,41.6015539 196.6017,41.6015539 196.396005,41.5868046 L196.396005,43.3124775 L197.599935,43.3124775 L197.599935,44.7899222 L193.63629,44.7899222 L193.63629,43.3124775 Z" id="Fill-66" fill="#1F2171"></path>
                    <path d="M207.141316,41.5869615 C207.141316,40.4170562 206.407366,39.597997 205.365031,39.597997 C204.323011,39.597997 203.588746,40.4170562 203.588746,41.5869615 C203.588746,42.7571805 204.323011,43.5759259 205.365031,43.5759259 C206.407366,43.5759259 207.141316,42.7571805 207.141316,41.5869615 M201.944446,41.5869615 C201.944446,39.8321036 203.265871,38.2674181 205.365031,38.2674181 C207.493486,38.2674181 208.785301,39.8026049 208.785301,41.5869615 C208.785301,43.3421331 207.464191,44.9068186 205.365031,44.9068186 C203.236576,44.9068186 201.944446,43.371318 201.944446,41.5869615" id="Fill-68" fill="#1F2171"></path>
                    <polygon id="Fill-70" fill="#1F2171" points="209.900621 39.7297997 209.151866 39.7297997 209.151866 38.3841576 212.440151 38.3841576 212.440151 39.6566806 211.515311 39.6566806 213.056606 42.9909733 214.598216 39.6566806 213.628961 39.6566806 213.628961 38.3841576 216.902756 38.3841576 216.902756 39.7297997 216.154001 39.7297997 213.599666 44.9068186 212.454641 44.9068186"></polygon>
                    <path d="M218.928427,41.0166327 L222.055117,41.0166327 C222.025822,40.1392037 221.453467,39.5542511 220.513822,39.5542511 C219.809167,39.5542511 219.104827,39.9637807 218.928427,41.0166327 L218.928427,41.0166327 Z M218.943232,42.1281682 C219.163417,43.1223366 219.985252,43.561051 221.056882,43.561051 C221.834932,43.561051 222.642277,43.3125089 223.391032,42.8885438 L223.259047,44.3217405 C222.583687,44.7168345 221.761537,44.9066931 220.822207,44.9066931 C218.722732,44.9066931 217.269637,43.5905497 217.269637,41.6015853 C217.269637,39.7880439 218.546962,38.2672926 220.528627,38.2672926 C222.583687,38.2672926 223.655317,39.6421195 223.655317,41.3382938 C223.655317,41.5868359 223.626022,41.9088109 223.581607,42.1281682 L218.943232,42.1281682 Z" id="Fill-72" fill="#1F2171"></path>
                    <path d="M230.289941,39.3203642 C230.289941,39.8613826 229.864061,40.3145326 229.335806,40.3145326 C228.851336,40.3145326 228.528461,40.0368056 228.396161,39.7446432 C227.940986,39.9053168 227.412731,40.402401 227.119151,40.9581688 L227.119151,43.4734023 L228.234881,43.4734023 L228.234881,44.7898595 L224.564816,44.7898595 L224.564816,43.4734023 L225.518951,43.4734023 L225.518951,39.7298938 L224.564816,39.7298938 L224.564816,38.3842517 L227.060561,38.3842517 L227.060561,39.8321978 C227.603621,38.9695182 228.278981,38.2675123 229.100816,38.2675123 C229.893671,38.2675123 230.289941,38.7498471 230.289941,39.3203642" id="Fill-74" fill="#1F2171"></path>
                    <path d="M232.095206,44.0294525 C231.948416,43.766161 231.875021,43.4297505 231.875021,43.0202209 L231.875021,39.7298624 L230.627306,39.7298624 L230.627306,38.3842204 L231.875021,38.3842204 L231.875021,37.0388921 L233.460416,36.3513217 L233.460416,38.3842204 L235.412786,38.3842204 L235.412786,39.7298624 L233.460416,39.7298624 L233.460416,42.7133091 C233.460416,42.917917 233.489711,43.0494058 233.563106,43.1812084 C233.680601,43.3858163 233.915591,43.4881202 234.238466,43.4881202 C234.649541,43.4881202 235.119521,43.3274465 235.500986,43.1517097 L235.369001,44.5265366 C234.928316,44.7458939 234.414551,44.9068814 233.827391,44.9068814 C233.049341,44.9068814 232.418081,44.6435899 232.095206,44.0294525" id="Fill-76" fill="#1F2171"></path>
                    <path d="M237.511883,47.699936 C236.660438,47.699936 236.131868,47.2028518 236.131868,46.6910182 C236.131868,46.1499998 236.499158,45.871959 236.924408,45.871959 C237.306503,45.871959 237.526373,46.1060656 237.629378,46.3546077 C237.790658,46.3106735 237.967058,46.2083696 238.142828,45.974263 C238.246148,45.8427742 238.334033,45.6817867 238.436723,45.4771788 L238.920878,44.4679472 L236.631143,39.7299566 L235.838288,39.7299566 L235.838288,38.3840007 L239.156183,38.3840007 L239.156183,39.6565237 L238.216538,39.6565237 L239.699243,43.0347506 L241.196438,39.6565237 L240.198203,39.6565237 L240.198203,38.3840007 L243.500978,38.3840007 L243.500978,39.7299566 L242.722928,39.7299566 L239.714048,46.0913163 C239.566943,46.3837926 239.405663,46.647084 239.214458,46.8664413 C238.745108,47.4074597 238.157633,47.699936 237.511883,47.699936" id="Fill-78" fill="#1F2171"></path>
                </g>
            </g>
        </g>
    </g>
</svg>